<svg height="45" viewBox="0 0 141.7 45" width="141.7" xmlns="http://www.w3.org/2000/svg"><path d="m26.21 44.83a16.41 16.41 0 0 1 -16.06-12.73v-.1l-1.4-.07a9 9 0 0 1 -8.55-9v-22.76h135.85a5.48 5.48 0 0 1 5.47 5.47v33.71a5.49 5.49 0 0 1 -5.47 5.48z" fill="#fff"/><path d="m136.05.35a5.31 5.31 0 0 1 5.3 5.29v33.71a5.32 5.32 0 0 1 -5.3 5.3h-109.9a16.21 16.21 0 0 1 -15.83-12.59l-.06-.25h-.26l-1.27-.06a8.82 8.82 0 0 1 -8.38-8.83v-22.57zm0-.35h-136.05v22.92a9.17 9.17 0 0 0 8.71 9.16l1.27.06a16.67 16.67 0 0 0 16.2 12.86h109.87a5.65 5.65 0 0 0 5.65-5.65v-33.71a5.65 5.65 0 0 0 -5.65-5.64z" fill="#929497"/><path d="m4.72 4.72v18.17a5.38 5.38 0 0 0 5.12 5.37 16.15 16.15 0 0 1 13.31-16.19 16.1 16.1 0 0 1 18.69 13.08 16.24 16.24 0 0 1 .24 3.11 5.37 5.37 0 0 0 5.1-5.37v-18.17z" fill="#5fc323"/><path d="m20.78 28a5.2 5.2 0 1 1 10.4 0zm-7.18 0a12.36 12.36 0 0 0 12.32 12.28 12.23 12.23 0 0 0 8.74-3.64l-2.51-2.5a8.79 8.79 0 1 1 2.55-6.14h3.54a12.32 12.32 0 0 0 -24.64 0z"/><g fill="#231f20"><path d="m54.73 27.26a3.31 3.31 0 0 1 -1.35-.26 3 3 0 0 1 -1.07-.78 3.62 3.62 0 0 1 -.71-1.22 5.16 5.16 0 0 1 -.26-1.7 5 5 0 0 1 .26-1.68 3.83 3.83 0 0 1 .73-1.27 3.08 3.08 0 0 1 1.09-.8 3.39 3.39 0 0 1 1.37-.28 2.61 2.61 0 0 1 1.25.29 3.37 3.37 0 0 1 .88.67l-.53.64a2.4 2.4 0 0 0 -.7-.53 2.1 2.1 0 0 0 -.89-.2 2.15 2.15 0 0 0 -1 .22 2 2 0 0 0 -.77.63 2.94 2.94 0 0 0 -.5 1 5.17 5.17 0 0 0 0 2.63 3.42 3.42 0 0 0 .48 1 2.11 2.11 0 0 0 1.76.86 2 2 0 0 0 1-.23 3.14 3.14 0 0 0 .81-.64l.54.61a3.47 3.47 0 0 1 -1 .83 2.88 2.88 0 0 1 -1.39.21z"/><path d="m60.79 27.26a2.85 2.85 0 0 1 -1.08-.21 2.78 2.78 0 0 1 -.88-.59 2.85 2.85 0 0 1 -.58-.94 3.68 3.68 0 0 1 -.25-1.27 3.57 3.57 0 0 1 .25-1.25 3 3 0 0 1 .58-1 2.6 2.6 0 0 1 .83-.6 2.32 2.32 0 0 1 1-.2 2.29 2.29 0 0 1 1 .19 1.86 1.86 0 0 1 .73.54 2.46 2.46 0 0 1 .44.85 4.2 4.2 0 0 1 .17 1.12v.55h-4a2.3 2.3 0 0 0 .58 1.47 1.77 1.77 0 0 0 1.34.53 2.53 2.53 0 0 0 .77-.12 2.78 2.78 0 0 0 .67-.33l.34.64a4.71 4.71 0 0 1 -.84.42 3 3 0 0 1 -1.07.2zm-1.79-3.49h3.08a2.1 2.1 0 0 0 -.37-1.33 1.29 1.29 0 0 0 -1-.45 1.55 1.55 0 0 0 -1.09.46 2.15 2.15 0 0 0 -.37.57 2.46 2.46 0 0 0 -.25.75z"/><path d="m64.33 27.11v-5.75h.81l.08 1a2.49 2.49 0 0 1 .72-.86 1.44 1.44 0 0 1 .91-.32 1.88 1.88 0 0 1 .62.11l-.19.86-.28-.07a1.17 1.17 0 0 0 -1.06.27 2.18 2.18 0 0 0 -.69 1v3.65z"/><path d="m70.26 27.26a1.75 1.75 0 0 1 -.78-.15 1.23 1.23 0 0 1 -.51-.39 1.5 1.5 0 0 1 -.28-.6 4.13 4.13 0 0 1 -.08-.78v-3.19h-.85v-.73l.9-.06.12-1.61h.81v1.61h1.55v.79h-1.55v3.2a1.39 1.39 0 0 0 .2.82.77.77 0 0 0 .69.29h.33l.32-.11.19.73a4.91 4.91 0 0 1 -.51.15 2.54 2.54 0 0 1 -.55.03z"/><path d="m72.94 20.17a.64.64 0 0 1 -.47-.17.56.56 0 0 1 -.2-.45.57.57 0 0 1 .2-.46.75.75 0 0 1 1 0 .61.61 0 0 1 .2.46.59.59 0 0 1 -.2.45.65.65 0 0 1 -.53.17zm-.49 6.94v-5.75h1v5.75z"/><path d="m75.53 27.11v-5h-.79v-.73l.79-.06v-.91a2.19 2.19 0 0 1 .4-1.4 1.55 1.55 0 0 1 1.28-.51 2.94 2.94 0 0 1 .51.05 2.59 2.59 0 0 1 .45.14l-.22.75a1.44 1.44 0 0 0 -.65-.15c-.53 0-.8.38-.8 1.12v.91h1.22v.79h-1.22v5z"/><path d="m79.32 20.17a.65.65 0 0 1 -.48-.17.59.59 0 0 1 -.2-.45.61.61 0 0 1 .2-.46.76.76 0 0 1 1 0 .58.58 0 0 1 .19.46.55.55 0 0 1 -.19.45.65.65 0 0 1 -.52.17zm-.5 6.94v-5.75h1v5.75z"/><path d="m84.06 27.26a2.73 2.73 0 0 1 -1.94-.8 2.85 2.85 0 0 1 -.58-.94 3.68 3.68 0 0 1 -.21-1.27 3.55 3.55 0 0 1 .19-1.25 3 3 0 0 1 .58-1 2.71 2.71 0 0 1 .83-.6 2.48 2.48 0 0 1 1-.2 2.29 2.29 0 0 1 1 .19 1.86 1.86 0 0 1 .73.54 2.46 2.46 0 0 1 .44.85 4.2 4.2 0 0 1 .15 1.12v.55h-4a2.3 2.3 0 0 0 .58 1.47 1.77 1.77 0 0 0 1.34.53 2.53 2.53 0 0 0 .77-.12 2.78 2.78 0 0 0 .67-.33l.34.64a4.71 4.71 0 0 1 -.84.42 3 3 0 0 1 -1.05.2zm-1.81-3.49h3.08a2.07 2.07 0 0 0 -.33-1.33 1.29 1.29 0 0 0 -1-.44 1.55 1.55 0 0 0 -1.09.46 2.15 2.15 0 0 0 -.37.57 2.29 2.29 0 0 0 -.29.74z"/><path d="m89.57 27.26a2.11 2.11 0 0 1 -1.73-.79 3.4 3.4 0 0 1 -.65-2.22 3.53 3.53 0 0 1 .21-1.25 2.84 2.84 0 0 1 .6-1 2.44 2.44 0 0 1 .79-.6 2.14 2.14 0 0 1 1-.21 2 2 0 0 1 .86.17 3.72 3.72 0 0 1 .75.49v-3.17h1v8.43h-.81l-.08-.67a3.38 3.38 0 0 1 -.79.57 1.86 1.86 0 0 1 -1.15.25zm.21-.82a1.54 1.54 0 0 0 .76-.2 2.51 2.51 0 0 0 .71-.59v-3a2.39 2.39 0 0 0 -.7-.47 1.86 1.86 0 0 0 -.7-.14 1.44 1.44 0 0 0 -.64.16 1.65 1.65 0 0 0 -.53.45 2.09 2.09 0 0 0 -.35.7 3.32 3.32 0 0 0 .28 2.52 1.36 1.36 0 0 0 1.17.57z"/><path d="m96.64 27.11v-7.76h2.21a5.92 5.92 0 0 1 1.19.11 2.58 2.58 0 0 1 .92.39 1.82 1.82 0 0 1 .59.7 2.38 2.38 0 0 1 .22 1.08 2.47 2.47 0 0 1 -.21 1.07 1.85 1.85 0 0 1 -.59.74 2.54 2.54 0 0 1 -.9.45 4.19 4.19 0 0 1 -1.17.11h-1.28v3.07zm1-3.88h1.16a2.39 2.39 0 0 0 1.51-.39 1.43 1.43 0 0 0 .49-1.21 1.3 1.3 0 0 0 -.51-1.17 3 3 0 0 0 -1.53-.32h-1.14z"/><path d="m103.25 27.11v-5.75h.8l.09 1a2.71 2.71 0 0 1 .72-.86 1.47 1.47 0 0 1 .92-.32 1.78 1.78 0 0 1 .61.11l-.19.86-.26-.07h-.3a1.31 1.31 0 0 0 -.76.3 2.4 2.4 0 0 0 -.69 1v3.69z"/><path d="m107.85 20.17a.65.65 0 0 1 -.48-.17.55.55 0 0 1 -.19-.45.58.58 0 0 1 .19-.46.76.76 0 0 1 1 0 .61.61 0 0 1 .2.46.59.59 0 0 1 -.2.45.66.66 0 0 1 -.52.17zm-.49 6.94v-5.75h1v5.75z"/><path d="m111.51 27.11-2.07-5.75h1l1.09 3.27c.08.28.17.57.26.85l.27.84c.08-.28.17-.56.26-.84s.17-.57.26-.85l1.09-3.27h1l-2 5.75z"/><path d="m116.89 27.26a1.76 1.76 0 0 1 -1.2-.43 1.53 1.53 0 0 1 -.48-1.21 1.6 1.6 0 0 1 .84-1.45 7 7 0 0 1 2.69-.7 2.48 2.48 0 0 0 -.06-.54 1.3 1.3 0 0 0 -.18-.46 1.08 1.08 0 0 0 -1-.45 2.28 2.28 0 0 0 -.93.19 4.55 4.55 0 0 0 -.78.43l-.38-.68a6.22 6.22 0 0 1 1-.5 3.31 3.31 0 0 1 1.28-.24 1.79 1.79 0 0 1 1.53.64 2.91 2.91 0 0 1 .47 1.72v3.53h-.81l-.08-.68a5.23 5.23 0 0 1 -.8.57 2.11 2.11 0 0 1 -1.11.26zm.28-.79a1.67 1.67 0 0 0 .79-.19 4.33 4.33 0 0 0 .78-.57v-1.6a10.06 10.06 0 0 0 -1.22.22 3.17 3.17 0 0 0 -.79.31 1.24 1.24 0 0 0 -.44.41 1 1 0 0 0 -.13.5.8.8 0 0 0 .29.71 1.22 1.22 0 0 0 .72.21z"/><path d="m123.81 27.26a2.8 2.8 0 0 1 -1.07-.21 2.3 2.3 0 0 1 -.86-.58 2.8 2.8 0 0 1 -.57-.95 3.67 3.67 0 0 1 -.2-1.27 3.54 3.54 0 0 1 .22-1.29 2.81 2.81 0 0 1 .61-.95 2.48 2.48 0 0 1 .88-.59 2.6 2.6 0 0 1 1.06-.2 2 2 0 0 1 1 .2 2.83 2.83 0 0 1 .71.47l-.5.64a2.4 2.4 0 0 0 -.53-.37 1.48 1.48 0 0 0 -.62-.14 1.8 1.8 0 0 0 -.72.16 1.7 1.7 0 0 0 -.57.46 2.14 2.14 0 0 0 -.37.7 3.1 3.1 0 0 0 0 1.81 2.27 2.27 0 0 0 .36.69 1.56 1.56 0 0 0 .57.45 1.61 1.61 0 0 0 .72.16 1.71 1.71 0 0 0 .74-.17 2.83 2.83 0 0 0 .61-.41l.42.65a2.84 2.84 0 0 1 -.86.54 2.54 2.54 0 0 1 -1.03.2z"/><path d="m127.1 29.59a2.29 2.29 0 0 1 -.37 0 1.58 1.58 0 0 1 -.31-.09l.19-.77.21.05h.23a1 1 0 0 0 .81-.35 2.55 2.55 0 0 0 .49-.88l.13-.42-2.31-5.77h1l1.17 3.18.28.8c.1.28.19.56.28.83h.1c.08-.26.17-.54.25-.82s.15-.55.23-.81l1-3.18h1l-2.17 6.23a5.53 5.53 0 0 1 -.34.79 2.79 2.79 0 0 1 -.45.63 2.08 2.08 0 0 1 -.59.43 1.75 1.75 0 0 1 -.83.15z"/></g><g fill="#004676"><path d="m51.38 40.85v-6.19h1.77a4.19 4.19 0 0 1 1 .1 2 2 0 0 1 .73.3 1.5 1.5 0 0 1 .47.56 2.21 2.21 0 0 1 0 1.71 1.48 1.48 0 0 1 -.46.59 2.26 2.26 0 0 1 -.73.36 3.57 3.57 0 0 1 -.92.12h-1v2.45zm.79-3.1h.92a2 2 0 0 0 1.2-.3 1.16 1.16 0 0 0 .4-1 1 1 0 0 0 -.41-.93 2.48 2.48 0 0 0 -1.23-.26h-.88z"/><path d="m58 41a2 2 0 0 1 -1.48-.63 2.23 2.23 0 0 1 -.46-.75 2.87 2.87 0 0 1 0-2 2.28 2.28 0 0 1 .46-.76 2 2 0 0 1 .68-.47 2.14 2.14 0 0 1 1.61 0 2.08 2.08 0 0 1 .67.47 2.48 2.48 0 0 1 .47.76 3 3 0 0 1 0 2 2.11 2.11 0 0 1 -.47.75 2.08 2.08 0 0 1 -.67.47 2.05 2.05 0 0 1 -.81.16zm0-.64a1.13 1.13 0 0 0 .54-.13 1.22 1.22 0 0 0 .42-.36 1.42 1.42 0 0 0 .27-.55 2.82 2.82 0 0 0 .09-.71 3 3 0 0 0 -.09-.73 1.93 1.93 0 0 0 -.27-.56 1.32 1.32 0 0 0 -.42-.36 1.13 1.13 0 0 0 -.54-.13 1.09 1.09 0 0 0 -.53.13 1.12 1.12 0 0 0 -.42.36 1.93 1.93 0 0 0 -.27.56 2.57 2.57 0 0 0 -.1.73 2.44 2.44 0 0 0 .1.71 1.42 1.42 0 0 0 .27.55 1 1 0 0 0 .42.36 1.08 1.08 0 0 0 .53.09z"/><path d="m61.84 40.85-1.27-4.59h.79l.64 2.65c0 .22.1.44.14.65s.09.41.13.63l.15-.64a3.15 3.15 0 0 1 .16-.64l.71-2.65h.71l.72 2.65c.06.22.11.44.17.65s.1.41.15.63a3.21 3.21 0 0 1 .14-.63c0-.2.09-.43.14-.65l.68-2.65h.74l-1.23 4.59h-.91l-.66-2.46c-.06-.22-.11-.44-.16-.65s-.1-.44-.15-.67l-.15.67c0 .22-.11.44-.17.66l-.64 2.45z"/><path d="m69.52 41a2.3 2.3 0 0 1 -.86-.16 2.08 2.08 0 0 1 -.7-.48 2 2 0 0 1 -.47-.75 2.94 2.94 0 0 1 0-2 2.28 2.28 0 0 1 .46-.76 1.9 1.9 0 0 1 .65-.47 1.93 1.93 0 0 1 1.54 0 1.49 1.49 0 0 1 .58.44 1.91 1.91 0 0 1 .35.68 2.61 2.61 0 0 1 .13.88v.24a.74.74 0 0 1 0 .21h-3.1a1.84 1.84 0 0 0 .47 1.17 1.4 1.4 0 0 0 1.07.43 1.81 1.81 0 0 0 .61-.1 2.61 2.61 0 0 0 .53-.26l.28.51a4.17 4.17 0 0 1 -.67.33 2.58 2.58 0 0 1 -.87.09zm-1.44-2.77h2.45a1.61 1.61 0 0 0 -.3-1.06 1 1 0 0 0 -.83-.37 1.28 1.28 0 0 0 -.47.1 1.12 1.12 0 0 0 -.4.28 1.63 1.63 0 0 0 -.3.44 1.85 1.85 0 0 0 -.15.57z"/><path d="m72.15 40.85v-4.59h.64l.07.83a2.32 2.32 0 0 1 .57-.68 1.21 1.21 0 0 1 1.23-.16l-.15.67-.21-.05h-.24a1 1 0 0 0 -.61.23 2 2 0 0 0 -.55.83v2.94z"/><path d="m77 41a2.35 2.35 0 0 1 -.87-.16 2 2 0 0 1 -.69-.48 2 2 0 0 1 -.47-.75 2.84 2.84 0 0 1 -.17-1 3.09 3.09 0 0 1 .17-1 2.48 2.48 0 0 1 .47-.76 1.9 1.9 0 0 1 .65-.47 1.83 1.83 0 0 1 .76-.17 2.08 2.08 0 0 1 .78.15 1.57 1.57 0 0 1 .58.44 1.91 1.91 0 0 1 .35.68 3.28 3.28 0 0 1 .12.88v.24a.74.74 0 0 1 0 .21h-3.1a1.79 1.79 0 0 0 .42 1.1 1.4 1.4 0 0 0 1.07.43 1.81 1.81 0 0 0 .61-.1 3.26 3.26 0 0 0 .53-.26l.27.51a4.17 4.17 0 0 1 -.67.33 2.27 2.27 0 0 1 -.81.18zm-1.45-2.77h2.45a1.6 1.6 0 0 0 -.29-1.06 1 1 0 0 0 -.84-.37 1.23 1.23 0 0 0 -.46.1 1.12 1.12 0 0 0 -.4.28 1.63 1.63 0 0 0 -.3.44 2.19 2.19 0 0 0 -.16.57z"/><path d="m81.19 41a1.71 1.71 0 0 1 -1.38-.62 2.73 2.73 0 0 1 -.51-1.77 2.83 2.83 0 0 1 .16-1 2.4 2.4 0 0 1 .44-.76 1.86 1.86 0 0 1 .63-.48 1.83 1.83 0 0 1 .76-.17 1.59 1.59 0 0 1 .68.14 3.85 3.85 0 0 1 .6.39v-2.6h.78v6.72h-.64l-.06-.54a2.83 2.83 0 0 1 -.63.46 1.62 1.62 0 0 1 -.83.23zm.17-.65a1.21 1.21 0 0 0 .61-.16 2.3 2.3 0 0 0 .56-.47v-2.4a1.76 1.76 0 0 0 -.53-.32 1.46 1.46 0 0 0 -.55-.11 1.06 1.06 0 0 0 -.52.13 1 1 0 0 0 -.41.36 1.61 1.61 0 0 0 -.29.55 2.67 2.67 0 0 0 .23 2 1.06 1.06 0 0 0 .93.42z"/><path d="m88.4 41a1.56 1.56 0 0 1 -.67-.15 2.76 2.76 0 0 1 -.64-.43l-.07.47h-.62v-6.76h.77v2.7a3.87 3.87 0 0 1 .68-.46 1.7 1.7 0 0 1 .76-.18 1.89 1.89 0 0 1 .78.17 1.44 1.44 0 0 1 .57.47 2.24 2.24 0 0 1 .35.73 3.83 3.83 0 0 1 0 2 2.62 2.62 0 0 1 -.44.78 1.88 1.88 0 0 1 -.63.49 1.82 1.82 0 0 1 -.84.17zm-.14-.65a1.09 1.09 0 0 0 .53-.13 1 1 0 0 0 .41-.36 1.69 1.69 0 0 0 .28-.57 3.22 3.22 0 0 0 .09-.76 4 4 0 0 0 -.06-.69 1.63 1.63 0 0 0 -.21-.53 1.27 1.27 0 0 0 -.38-.35 1.3 1.3 0 0 0 -.55-.12 2 2 0 0 0 -1.23.62v2.41a2.07 2.07 0 0 0 .6.37 1.52 1.52 0 0 0 .52.07z"/><path d="m91.43 42.82h-.29a.67.67 0 0 1 -.24-.07l.15-.61h.34a.85.85 0 0 0 .61-.24 1.86 1.86 0 0 0 .39-.7l.11-.34-1.84-4.6h.8l.93 2.54.22.64c.08.22.16.44.22.65.07-.2.14-.42.2-.65s.13-.44.19-.64l.78-2.54h.75l-1.72 5a5.17 5.17 0 0 1 -.28.64 2.15 2.15 0 0 1 -.35.5 1.94 1.94 0 0 1 -.47.34 1.42 1.42 0 0 1 -.5.08z"/></g><path d="m70.57 6.84v8.49h-2.34v-8.49h-3.23v-2.16h8.83v2.16z"/><path d="m81.46 15.33-2.28-3.41h-1.84v3.41h-2.34v-10.65h4.87c2.52 0 4 1.32 4 3.51a3.3 3.3 0 0 1 -2.28 3.3l2.61 3.81zm.05-7c0-1-.7-1.52-1.84-1.52h-2.33v3h2.37c1.14 0 1.8-.61 1.8-1.51z"/><path d="m90.13 15.5c-2.86 0-4.6-1.6-4.6-4.74v-6.08h2.34v6c0 1.74.87 2.63 2.3 2.63s2.29-.86 2.29-2.55v-6.08h2.35v6c0 3.23-1.81 4.82-4.68 4.82z"/><path d="m100.68 15.48a6.79 6.79 0 0 1 -4.52-1.7l1.39-1.66a4.86 4.86 0 0 0 3.17 1.29c1 0 1.54-.38 1.54-1 0-.6-.36-.9-2.14-1.36-2.12-.54-3.53-1.14-3.53-3.25 0-1.93 1.55-3.21 3.72-3.21a6.18 6.18 0 0 1 4 1.36l-1.21 1.76a5.08 5.08 0 0 0 -2.78-1c-.89 0-1.36.4-1.36.92 0 .7.45.93 2.29 1.4 2.16.57 3.38 1.34 3.38 3.2-.04 2.07-1.63 3.25-3.95 3.25z"/><path d="m110.54 6.84v8.49h-2.34v-8.49h-3.2v-2.16h8.83v2.16z"/><path d="m121.09 12.06h-5.68a1.88 1.88 0 0 0 2 1.59 2.66 2.66 0 0 0 2-.83l1.3 1.18a4.31 4.31 0 0 1 -7.6-2.69 4.07 4.07 0 0 1 3.89-4.24h.12c2.73 0 4 2.11 4 4.43a5.33 5.33 0 0 1 -.03.56zm-4-3.18a1.81 1.81 0 0 0 -1.76 1.73h3.48a1.74 1.74 0 0 0 -1.67-1.73z"/><path d="m99.19 35.72h-2v-1h5.13v1h-2v5.06h-1.13zm4.21 5.06v-3.35a1.67 1.67 0 0 1 .82-.18 3 3 0 0 1 .67.08l.27-.9a2.82 2.82 0 0 0 -1-.14 2.85 2.85 0 0 0 -1.84.63v3.86zm5.46-4.34v3.37a2.29 2.29 0 0 1 -.86.19c-.88 0-1.07-.4-1.07-1.12v-2.44h-1.06v2.73c0 1.07.61 1.75 2 1.75a4.68 4.68 0 0 0 2.11-.47v-4zm2 3.8a2.51 2.51 0 0 0 1.71.64c1 0 1.68-.58 1.68-1.32 0-1.41-2.14-1.34-2.14-2 0-.27.27-.39.56-.39a1.69 1.69 0 0 1 1.08.38l.4-.82a2.08 2.08 0 0 0 -1.47-.5c-1 0-1.69.48-1.69 1.3 0 1.41 2.14 1.33 2.14 2 0 .26-.26.4-.57.4a1.85 1.85 0 0 1 -1.2-.48zm4.3-1.07a1.61 1.61 0 0 0 1.55 1.66 1.29 1.29 0 0 0 .28 0h.34v-1h-.2a.8.8 0 0 1 -.87-.7v-1.75h1v-.93h-1v-1.27h-1.07zm9.8 1.61v-3.35a1.67 1.67 0 0 1 .82-.18 3 3 0 0 1 .67.08l.27-.9a2.82 2.82 0 0 0 -1-.14 2.85 2.85 0 0 0 -1.84.63v3.86zm4.23-4.43a2.25 2.25 0 0 0 0 4.5 2.41 2.41 0 0 0 1.76-.7l-.41-.76a2 2 0 0 1 -1.26.55 1.31 1.31 0 0 1 -1.34-1.28v-.07a1.28 1.28 0 0 1 1.23-1.33h.08a1.66 1.66 0 0 1 1.11.46l.48-.73a2.15 2.15 0 0 0 -1.65-.64m-7.57 2.86h-2l-.62 1.54h-1.11l2.1-6h1.12l2.1 6h-1.12zm-.31-.88-.69-2-.69 2z" fill="#004676"/><path d="m51.39 31.76h79.51" fill="none" stroke="#231f20" stroke-miterlimit="10" stroke-width=".5"/></svg>